<mxfile host="Electron" agent="Mozilla/5.0 (Windows NT 10.0; Win64; x64) AppleWebKit/537.36 (KHTML, like Gecko) draw.io/26.0.7 Chrome/128.0.6613.186 Electron/32.2.5 Safari/537.36" version="26.0.7">
  <diagram name="Страница — 1" id="H-6QdkIG-hAgToCAQCZ7">
    <mxGraphModel dx="1808" dy="725" grid="1" gridSize="10" guides="1" tooltips="1" connect="1" arrows="1" fold="1" page="1" pageScale="1" pageWidth="827" pageHeight="1169" math="0" shadow="0">
      <root>
        <mxCell id="0" />
        <mxCell id="1" parent="0" />
        <mxCell id="7Ly5xIm2dCU_URC9Vnqb-4" style="rounded=0;orthogonalLoop=1;jettySize=auto;html=1;entryX=0.5;entryY=0;entryDx=0;entryDy=0;endArrow=none;startFill=0;exitX=0;exitY=0.5;exitDx=0;exitDy=0;" edge="1" parent="1" source="7Ly5xIm2dCU_URC9Vnqb-1" target="7Ly5xIm2dCU_URC9Vnqb-2">
          <mxGeometry relative="1" as="geometry" />
        </mxCell>
        <mxCell id="7Ly5xIm2dCU_URC9Vnqb-1" value="&lt;font style=&quot;font-size: 30px;&quot;&gt;A&lt;/font&gt;" style="ellipse;whiteSpace=wrap;html=1;aspect=fixed;" vertex="1" parent="1">
          <mxGeometry x="360" y="200" width="40" height="40" as="geometry" />
        </mxCell>
        <mxCell id="7Ly5xIm2dCU_URC9Vnqb-2" value="&lt;font style=&quot;font-size: 30px;&quot;&gt;B&lt;/font&gt;" style="ellipse;whiteSpace=wrap;html=1;aspect=fixed;" vertex="1" parent="1">
          <mxGeometry x="320" y="240" width="40" height="40" as="geometry" />
        </mxCell>
        <mxCell id="7Ly5xIm2dCU_URC9Vnqb-3" value="&lt;font style=&quot;font-size: 30px;&quot;&gt;C&lt;/font&gt;" style="ellipse;whiteSpace=wrap;html=1;aspect=fixed;" vertex="1" parent="1">
          <mxGeometry x="400" y="240" width="40" height="40" as="geometry" />
        </mxCell>
        <mxCell id="7Ly5xIm2dCU_URC9Vnqb-5" style="rounded=0;orthogonalLoop=1;jettySize=auto;html=1;entryX=0.5;entryY=0;entryDx=0;entryDy=0;endArrow=none;startFill=0;exitX=1;exitY=0.5;exitDx=0;exitDy=0;" edge="1" parent="1" source="7Ly5xIm2dCU_URC9Vnqb-1" target="7Ly5xIm2dCU_URC9Vnqb-3">
          <mxGeometry relative="1" as="geometry">
            <mxPoint x="379" y="247" as="sourcePoint" />
            <mxPoint x="350" y="290" as="targetPoint" />
          </mxGeometry>
        </mxCell>
        <mxCell id="7Ly5xIm2dCU_URC9Vnqb-6" style="rounded=0;orthogonalLoop=1;jettySize=auto;html=1;entryX=1;entryY=0;entryDx=0;entryDy=0;endArrow=none;startFill=0;exitX=0;exitY=1;exitDx=0;exitDy=0;" edge="1" parent="1" source="7Ly5xIm2dCU_URC9Vnqb-7" target="7Ly5xIm2dCU_URC9Vnqb-8">
          <mxGeometry relative="1" as="geometry" />
        </mxCell>
        <mxCell id="7Ly5xIm2dCU_URC9Vnqb-7" value="&lt;font style=&quot;font-size: 30px;&quot;&gt;A&lt;/font&gt;" style="ellipse;whiteSpace=wrap;html=1;aspect=fixed;" vertex="1" parent="1">
          <mxGeometry x="520" y="200" width="40" height="40" as="geometry" />
        </mxCell>
        <mxCell id="7Ly5xIm2dCU_URC9Vnqb-8" value="&lt;font style=&quot;font-size: 30px;&quot;&gt;B&lt;/font&gt;" style="ellipse;whiteSpace=wrap;html=1;aspect=fixed;" vertex="1" parent="1">
          <mxGeometry x="480" y="240" width="40" height="40" as="geometry" />
        </mxCell>
        <mxCell id="7Ly5xIm2dCU_URC9Vnqb-9" value="&lt;font style=&quot;font-size: 30px;&quot;&gt;C&lt;/font&gt;" style="ellipse;whiteSpace=wrap;html=1;aspect=fixed;" vertex="1" parent="1">
          <mxGeometry x="560" y="240" width="40" height="40" as="geometry" />
        </mxCell>
        <mxCell id="7Ly5xIm2dCU_URC9Vnqb-10" style="rounded=0;orthogonalLoop=1;jettySize=auto;html=1;entryX=0;entryY=0;entryDx=0;entryDy=0;endArrow=none;startFill=0;exitX=1;exitY=1;exitDx=0;exitDy=0;" edge="1" parent="1" source="7Ly5xIm2dCU_URC9Vnqb-7" target="7Ly5xIm2dCU_URC9Vnqb-9">
          <mxGeometry relative="1" as="geometry">
            <mxPoint x="539" y="247" as="sourcePoint" />
            <mxPoint x="510" y="290" as="targetPoint" />
          </mxGeometry>
        </mxCell>
        <mxCell id="7Ly5xIm2dCU_URC9Vnqb-13" style="rounded=0;orthogonalLoop=1;jettySize=auto;html=1;entryX=1;entryY=0;entryDx=0;entryDy=0;endArrow=none;startFill=0;exitX=0;exitY=1;exitDx=0;exitDy=0;" edge="1" parent="1" target="7Ly5xIm2dCU_URC9Vnqb-14" source="7Ly5xIm2dCU_URC9Vnqb-9">
          <mxGeometry relative="1" as="geometry">
            <mxPoint x="560" y="260" as="sourcePoint" />
          </mxGeometry>
        </mxCell>
        <mxCell id="7Ly5xIm2dCU_URC9Vnqb-14" value="&lt;font style=&quot;font-size: 30px;&quot;&gt;E&lt;/font&gt;" style="ellipse;whiteSpace=wrap;html=1;aspect=fixed;" vertex="1" parent="1">
          <mxGeometry x="520" y="280" width="40" height="40" as="geometry" />
        </mxCell>
        <mxCell id="7Ly5xIm2dCU_URC9Vnqb-15" value="&lt;font style=&quot;font-size: 30px;&quot;&gt;D&lt;/font&gt;" style="ellipse;whiteSpace=wrap;html=1;aspect=fixed;" vertex="1" parent="1">
          <mxGeometry x="600" y="280" width="40" height="40" as="geometry" />
        </mxCell>
        <mxCell id="7Ly5xIm2dCU_URC9Vnqb-16" style="rounded=0;orthogonalLoop=1;jettySize=auto;html=1;entryX=0;entryY=0;entryDx=0;entryDy=0;endArrow=none;startFill=0;exitX=1;exitY=1;exitDx=0;exitDy=0;" edge="1" parent="1" target="7Ly5xIm2dCU_URC9Vnqb-15" source="7Ly5xIm2dCU_URC9Vnqb-9">
          <mxGeometry relative="1" as="geometry">
            <mxPoint x="600" y="260" as="sourcePoint" />
            <mxPoint x="550" y="330" as="targetPoint" />
          </mxGeometry>
        </mxCell>
        <mxCell id="7Ly5xIm2dCU_URC9Vnqb-18" style="rounded=0;orthogonalLoop=1;jettySize=auto;html=1;entryX=1;entryY=0;entryDx=0;entryDy=0;endArrow=none;startFill=0;exitX=0;exitY=1;exitDx=0;exitDy=0;" edge="1" parent="1" source="7Ly5xIm2dCU_URC9Vnqb-19" target="7Ly5xIm2dCU_URC9Vnqb-20">
          <mxGeometry relative="1" as="geometry" />
        </mxCell>
        <mxCell id="7Ly5xIm2dCU_URC9Vnqb-19" value="&lt;font style=&quot;font-size: 30px;&quot;&gt;D&lt;/font&gt;" style="ellipse;whiteSpace=wrap;html=1;aspect=fixed;" vertex="1" parent="1">
          <mxGeometry x="520" y="360" width="40" height="40" as="geometry" />
        </mxCell>
        <mxCell id="7Ly5xIm2dCU_URC9Vnqb-20" value="&lt;font style=&quot;font-size: 30px;&quot;&gt;B&lt;/font&gt;" style="ellipse;whiteSpace=wrap;html=1;aspect=fixed;" vertex="1" parent="1">
          <mxGeometry x="480" y="400" width="40" height="40" as="geometry" />
        </mxCell>
        <mxCell id="7Ly5xIm2dCU_URC9Vnqb-21" value="&lt;font style=&quot;font-size: 30px;&quot;&gt;E&lt;/font&gt;" style="ellipse;whiteSpace=wrap;html=1;aspect=fixed;" vertex="1" parent="1">
          <mxGeometry x="560" y="400" width="40" height="40" as="geometry" />
        </mxCell>
        <mxCell id="7Ly5xIm2dCU_URC9Vnqb-22" style="rounded=0;orthogonalLoop=1;jettySize=auto;html=1;entryX=0;entryY=0;entryDx=0;entryDy=0;endArrow=none;startFill=0;exitX=1;exitY=1;exitDx=0;exitDy=0;" edge="1" parent="1" source="7Ly5xIm2dCU_URC9Vnqb-19" target="7Ly5xIm2dCU_URC9Vnqb-21">
          <mxGeometry relative="1" as="geometry">
            <mxPoint x="539" y="407" as="sourcePoint" />
            <mxPoint x="510" y="450" as="targetPoint" />
          </mxGeometry>
        </mxCell>
        <mxCell id="7Ly5xIm2dCU_URC9Vnqb-23" style="rounded=0;orthogonalLoop=1;jettySize=auto;html=1;entryX=1;entryY=0;entryDx=0;entryDy=0;endArrow=none;startFill=0;exitX=0;exitY=1;exitDx=0;exitDy=0;" edge="1" parent="1" source="7Ly5xIm2dCU_URC9Vnqb-21" target="7Ly5xIm2dCU_URC9Vnqb-24">
          <mxGeometry relative="1" as="geometry">
            <mxPoint x="560" y="420" as="sourcePoint" />
          </mxGeometry>
        </mxCell>
        <mxCell id="7Ly5xIm2dCU_URC9Vnqb-24" value="&lt;font style=&quot;font-size: 30px;&quot;&gt;C&lt;/font&gt;" style="ellipse;whiteSpace=wrap;html=1;aspect=fixed;" vertex="1" parent="1">
          <mxGeometry x="520" y="440" width="40" height="40" as="geometry" />
        </mxCell>
        <mxCell id="7Ly5xIm2dCU_URC9Vnqb-25" value="&lt;font style=&quot;font-size: 30px;&quot;&gt;A&lt;/font&gt;" style="ellipse;whiteSpace=wrap;html=1;aspect=fixed;" vertex="1" parent="1">
          <mxGeometry x="600" y="440" width="40" height="40" as="geometry" />
        </mxCell>
        <mxCell id="7Ly5xIm2dCU_URC9Vnqb-26" style="rounded=0;orthogonalLoop=1;jettySize=auto;html=1;entryX=0;entryY=0;entryDx=0;entryDy=0;endArrow=none;startFill=0;exitX=1;exitY=1;exitDx=0;exitDy=0;" edge="1" parent="1" source="7Ly5xIm2dCU_URC9Vnqb-21" target="7Ly5xIm2dCU_URC9Vnqb-25">
          <mxGeometry relative="1" as="geometry">
            <mxPoint x="600" y="420" as="sourcePoint" />
            <mxPoint x="550" y="490" as="targetPoint" />
          </mxGeometry>
        </mxCell>
        <mxCell id="7Ly5xIm2dCU_URC9Vnqb-27" style="rounded=0;orthogonalLoop=1;jettySize=auto;html=1;entryX=1;entryY=0;entryDx=0;entryDy=0;endArrow=none;startFill=0;exitX=0;exitY=1;exitDx=0;exitDy=0;" edge="1" parent="1" target="7Ly5xIm2dCU_URC9Vnqb-28">
          <mxGeometry relative="1" as="geometry">
            <mxPoint x="526" y="474" as="sourcePoint" />
          </mxGeometry>
        </mxCell>
        <mxCell id="7Ly5xIm2dCU_URC9Vnqb-28" value="&lt;font style=&quot;font-size: 30px;&quot;&gt;H&lt;/font&gt;" style="ellipse;whiteSpace=wrap;html=1;aspect=fixed;" vertex="1" parent="1">
          <mxGeometry x="480" y="480" width="40" height="40" as="geometry" />
        </mxCell>
        <mxCell id="7Ly5xIm2dCU_URC9Vnqb-29" value="&lt;font style=&quot;font-size: 30px;&quot;&gt;G&lt;/font&gt;" style="ellipse;whiteSpace=wrap;html=1;aspect=fixed;" vertex="1" parent="1">
          <mxGeometry x="560" y="480" width="40" height="40" as="geometry" />
        </mxCell>
        <mxCell id="7Ly5xIm2dCU_URC9Vnqb-30" style="rounded=0;orthogonalLoop=1;jettySize=auto;html=1;entryX=0;entryY=0;entryDx=0;entryDy=0;endArrow=none;startFill=0;exitX=1;exitY=1;exitDx=0;exitDy=0;" edge="1" parent="1" target="7Ly5xIm2dCU_URC9Vnqb-29">
          <mxGeometry relative="1" as="geometry">
            <mxPoint x="554" y="474" as="sourcePoint" />
            <mxPoint x="510" y="530" as="targetPoint" />
          </mxGeometry>
        </mxCell>
        <mxCell id="7Ly5xIm2dCU_URC9Vnqb-33" style="rounded=0;orthogonalLoop=1;jettySize=auto;html=1;entryX=1;entryY=0;entryDx=0;entryDy=0;endArrow=none;startFill=0;exitX=0;exitY=1;exitDx=0;exitDy=0;" edge="1" parent="1" target="7Ly5xIm2dCU_URC9Vnqb-34">
          <mxGeometry relative="1" as="geometry">
            <mxPoint x="486" y="434" as="sourcePoint" />
          </mxGeometry>
        </mxCell>
        <mxCell id="7Ly5xIm2dCU_URC9Vnqb-34" value="&lt;font style=&quot;font-size: 30px;&quot;&gt;F&lt;/font&gt;" style="ellipse;whiteSpace=wrap;html=1;aspect=fixed;" vertex="1" parent="1">
          <mxGeometry x="440" y="440" width="40" height="40" as="geometry" />
        </mxCell>
        <mxCell id="7Ly5xIm2dCU_URC9Vnqb-35" style="rounded=0;orthogonalLoop=1;jettySize=auto;html=1;entryX=1;entryY=0;entryDx=0;entryDy=0;endArrow=none;startFill=0;exitX=0;exitY=1;exitDx=0;exitDy=0;" edge="1" parent="1" source="7Ly5xIm2dCU_URC9Vnqb-36" target="7Ly5xIm2dCU_URC9Vnqb-37">
          <mxGeometry relative="1" as="geometry" />
        </mxCell>
        <mxCell id="7Ly5xIm2dCU_URC9Vnqb-36" value="&lt;font style=&quot;font-size: 30px;&quot;&gt;G&lt;/font&gt;" style="ellipse;whiteSpace=wrap;html=1;aspect=fixed;" vertex="1" parent="1">
          <mxGeometry x="280" y="360" width="40" height="40" as="geometry" />
        </mxCell>
        <mxCell id="7Ly5xIm2dCU_URC9Vnqb-37" value="&lt;font style=&quot;font-size: 30px;&quot;&gt;E&lt;/font&gt;" style="ellipse;whiteSpace=wrap;html=1;aspect=fixed;" vertex="1" parent="1">
          <mxGeometry x="240" y="400" width="40" height="40" as="geometry" />
        </mxCell>
        <mxCell id="7Ly5xIm2dCU_URC9Vnqb-38" value="&lt;font style=&quot;font-size: 30px;&quot;&gt;B&lt;/font&gt;" style="ellipse;whiteSpace=wrap;html=1;aspect=fixed;" vertex="1" parent="1">
          <mxGeometry x="320" y="400" width="40" height="40" as="geometry" />
        </mxCell>
        <mxCell id="7Ly5xIm2dCU_URC9Vnqb-39" style="rounded=0;orthogonalLoop=1;jettySize=auto;html=1;entryX=0;entryY=0;entryDx=0;entryDy=0;endArrow=none;startFill=0;exitX=1;exitY=1;exitDx=0;exitDy=0;" edge="1" parent="1" source="7Ly5xIm2dCU_URC9Vnqb-36" target="7Ly5xIm2dCU_URC9Vnqb-38">
          <mxGeometry relative="1" as="geometry">
            <mxPoint x="299" y="407" as="sourcePoint" />
            <mxPoint x="270" y="450" as="targetPoint" />
          </mxGeometry>
        </mxCell>
        <mxCell id="7Ly5xIm2dCU_URC9Vnqb-41" value="&lt;font style=&quot;font-size: 30px;&quot;&gt;A&lt;/font&gt;" style="ellipse;whiteSpace=wrap;html=1;aspect=fixed;" vertex="1" parent="1">
          <mxGeometry x="280" y="440" width="40" height="40" as="geometry" />
        </mxCell>
        <mxCell id="7Ly5xIm2dCU_URC9Vnqb-44" style="rounded=0;orthogonalLoop=1;jettySize=auto;html=1;entryX=1;entryY=0;entryDx=0;entryDy=0;endArrow=none;startFill=0;exitX=0;exitY=1;exitDx=0;exitDy=0;" edge="1" parent="1" target="7Ly5xIm2dCU_URC9Vnqb-45">
          <mxGeometry relative="1" as="geometry">
            <mxPoint x="286" y="474" as="sourcePoint" />
          </mxGeometry>
        </mxCell>
        <mxCell id="7Ly5xIm2dCU_URC9Vnqb-45" value="&lt;font style=&quot;font-size: 30px;&quot;&gt;F&lt;/font&gt;" style="ellipse;whiteSpace=wrap;html=1;aspect=fixed;" vertex="1" parent="1">
          <mxGeometry x="240" y="480" width="40" height="40" as="geometry" />
        </mxCell>
        <mxCell id="7Ly5xIm2dCU_URC9Vnqb-46" value="&lt;font style=&quot;font-size: 30px;&quot;&gt;D&lt;/font&gt;" style="ellipse;whiteSpace=wrap;html=1;aspect=fixed;" vertex="1" parent="1">
          <mxGeometry x="320" y="480" width="40" height="40" as="geometry" />
        </mxCell>
        <mxCell id="7Ly5xIm2dCU_URC9Vnqb-47" style="rounded=0;orthogonalLoop=1;jettySize=auto;html=1;entryX=0;entryY=0;entryDx=0;entryDy=0;endArrow=none;startFill=0;exitX=1;exitY=1;exitDx=0;exitDy=0;" edge="1" parent="1" target="7Ly5xIm2dCU_URC9Vnqb-46">
          <mxGeometry relative="1" as="geometry">
            <mxPoint x="314" y="474" as="sourcePoint" />
            <mxPoint x="270" y="530" as="targetPoint" />
          </mxGeometry>
        </mxCell>
        <mxCell id="7Ly5xIm2dCU_URC9Vnqb-48" style="rounded=0;orthogonalLoop=1;jettySize=auto;html=1;entryX=1;entryY=0;entryDx=0;entryDy=0;endArrow=none;startFill=0;exitX=0;exitY=1;exitDx=0;exitDy=0;" edge="1" parent="1" target="7Ly5xIm2dCU_URC9Vnqb-49">
          <mxGeometry relative="1" as="geometry">
            <mxPoint x="246" y="434" as="sourcePoint" />
          </mxGeometry>
        </mxCell>
        <mxCell id="7Ly5xIm2dCU_URC9Vnqb-49" value="&lt;font style=&quot;font-size: 30px;&quot;&gt;C&lt;/font&gt;" style="ellipse;whiteSpace=wrap;html=1;aspect=fixed;" vertex="1" parent="1">
          <mxGeometry x="200" y="440" width="40" height="40" as="geometry" />
        </mxCell>
        <mxCell id="7Ly5xIm2dCU_URC9Vnqb-50" style="rounded=0;orthogonalLoop=1;jettySize=auto;html=1;entryX=0;entryY=0;entryDx=0;entryDy=0;endArrow=none;startFill=0;exitX=1;exitY=1;exitDx=0;exitDy=0;" edge="1" parent="1" source="7Ly5xIm2dCU_URC9Vnqb-37" target="7Ly5xIm2dCU_URC9Vnqb-41">
          <mxGeometry relative="1" as="geometry">
            <mxPoint x="270" y="430" as="sourcePoint" />
            <mxPoint x="282" y="442" as="targetPoint" />
          </mxGeometry>
        </mxCell>
        <mxCell id="7Ly5xIm2dCU_URC9Vnqb-52" style="rounded=0;orthogonalLoop=1;jettySize=auto;html=1;entryX=1;entryY=0;entryDx=0;entryDy=0;endArrow=none;startFill=0;exitX=0;exitY=1;exitDx=0;exitDy=0;" edge="1" parent="1" source="7Ly5xIm2dCU_URC9Vnqb-53" target="7Ly5xIm2dCU_URC9Vnqb-54">
          <mxGeometry relative="1" as="geometry" />
        </mxCell>
        <mxCell id="7Ly5xIm2dCU_URC9Vnqb-53" value="&lt;font style=&quot;font-size: 30px;&quot;&gt;B&lt;/font&gt;" style="ellipse;whiteSpace=wrap;html=1;aspect=fixed;" vertex="1" parent="1">
          <mxGeometry x="520" y="560" width="40" height="40" as="geometry" />
        </mxCell>
        <mxCell id="7Ly5xIm2dCU_URC9Vnqb-54" value="&lt;font style=&quot;font-size: 30px;&quot;&gt;J&lt;/font&gt;" style="ellipse;whiteSpace=wrap;html=1;aspect=fixed;" vertex="1" parent="1">
          <mxGeometry x="480" y="600" width="40" height="40" as="geometry" />
        </mxCell>
        <mxCell id="7Ly5xIm2dCU_URC9Vnqb-55" value="&lt;font style=&quot;font-size: 30px;&quot;&gt;G&lt;/font&gt;" style="ellipse;whiteSpace=wrap;html=1;aspect=fixed;" vertex="1" parent="1">
          <mxGeometry x="560" y="600" width="40" height="40" as="geometry" />
        </mxCell>
        <mxCell id="7Ly5xIm2dCU_URC9Vnqb-56" style="rounded=0;orthogonalLoop=1;jettySize=auto;html=1;entryX=0;entryY=0;entryDx=0;entryDy=0;endArrow=none;startFill=0;exitX=1;exitY=1;exitDx=0;exitDy=0;" edge="1" parent="1" source="7Ly5xIm2dCU_URC9Vnqb-53" target="7Ly5xIm2dCU_URC9Vnqb-55">
          <mxGeometry relative="1" as="geometry">
            <mxPoint x="539" y="607" as="sourcePoint" />
            <mxPoint x="510" y="650" as="targetPoint" />
          </mxGeometry>
        </mxCell>
        <mxCell id="7Ly5xIm2dCU_URC9Vnqb-58" value="&lt;font style=&quot;font-size: 30px;&quot;&gt;D&lt;/font&gt;" style="ellipse;whiteSpace=wrap;html=1;aspect=fixed;" vertex="1" parent="1">
          <mxGeometry x="520" y="640" width="40" height="40" as="geometry" />
        </mxCell>
        <mxCell id="7Ly5xIm2dCU_URC9Vnqb-59" value="&lt;font style=&quot;font-size: 30px;&quot;&gt;E&lt;/font&gt;" style="ellipse;whiteSpace=wrap;html=1;aspect=fixed;" vertex="1" parent="1">
          <mxGeometry x="600" y="640" width="40" height="40" as="geometry" />
        </mxCell>
        <mxCell id="7Ly5xIm2dCU_URC9Vnqb-60" style="rounded=0;orthogonalLoop=1;jettySize=auto;html=1;entryX=0;entryY=0;entryDx=0;entryDy=0;endArrow=none;startFill=0;exitX=1;exitY=1;exitDx=0;exitDy=0;" edge="1" parent="1" source="7Ly5xIm2dCU_URC9Vnqb-55" target="7Ly5xIm2dCU_URC9Vnqb-59">
          <mxGeometry relative="1" as="geometry">
            <mxPoint x="600" y="620" as="sourcePoint" />
            <mxPoint x="550" y="690" as="targetPoint" />
          </mxGeometry>
        </mxCell>
        <mxCell id="7Ly5xIm2dCU_URC9Vnqb-61" style="rounded=0;orthogonalLoop=1;jettySize=auto;html=1;entryX=1;entryY=0;entryDx=0;entryDy=0;endArrow=none;startFill=0;exitX=0;exitY=1;exitDx=0;exitDy=0;" edge="1" parent="1" target="7Ly5xIm2dCU_URC9Vnqb-62">
          <mxGeometry relative="1" as="geometry">
            <mxPoint x="526" y="674" as="sourcePoint" />
          </mxGeometry>
        </mxCell>
        <mxCell id="7Ly5xIm2dCU_URC9Vnqb-62" value="&lt;font style=&quot;font-size: 30px;&quot;&gt;K&lt;/font&gt;" style="ellipse;whiteSpace=wrap;html=1;aspect=fixed;" vertex="1" parent="1">
          <mxGeometry x="480" y="680" width="40" height="40" as="geometry" />
        </mxCell>
        <mxCell id="7Ly5xIm2dCU_URC9Vnqb-63" value="&lt;font style=&quot;font-size: 30px;&quot;&gt;A&lt;/font&gt;" style="ellipse;whiteSpace=wrap;html=1;aspect=fixed;" vertex="1" parent="1">
          <mxGeometry x="560" y="680" width="40" height="40" as="geometry" />
        </mxCell>
        <mxCell id="7Ly5xIm2dCU_URC9Vnqb-65" style="rounded=0;orthogonalLoop=1;jettySize=auto;html=1;entryX=1;entryY=0;entryDx=0;entryDy=0;endArrow=none;startFill=0;exitX=0;exitY=1;exitDx=0;exitDy=0;" edge="1" parent="1" target="7Ly5xIm2dCU_URC9Vnqb-66">
          <mxGeometry relative="1" as="geometry">
            <mxPoint x="486" y="634" as="sourcePoint" />
          </mxGeometry>
        </mxCell>
        <mxCell id="7Ly5xIm2dCU_URC9Vnqb-66" value="&lt;font style=&quot;font-size: 30px;&quot;&gt;L&lt;/font&gt;" style="ellipse;whiteSpace=wrap;html=1;aspect=fixed;" vertex="1" parent="1">
          <mxGeometry x="440" y="640" width="40" height="40" as="geometry" />
        </mxCell>
        <mxCell id="7Ly5xIm2dCU_URC9Vnqb-71" value="&lt;font style=&quot;font-size: 30px;&quot;&gt;C&lt;/font&gt;" style="ellipse;whiteSpace=wrap;html=1;aspect=fixed;" vertex="1" parent="1">
          <mxGeometry x="600" y="720" width="40" height="40" as="geometry" />
        </mxCell>
        <mxCell id="7Ly5xIm2dCU_URC9Vnqb-73" value="&lt;font style=&quot;font-size: 30px;&quot;&gt;I&lt;/font&gt;" style="ellipse;whiteSpace=wrap;html=1;aspect=fixed;" vertex="1" parent="1">
          <mxGeometry x="520" y="720" width="40" height="40" as="geometry" />
        </mxCell>
        <mxCell id="7Ly5xIm2dCU_URC9Vnqb-74" style="rounded=0;orthogonalLoop=1;jettySize=auto;html=1;entryX=1;entryY=0;entryDx=0;entryDy=0;endArrow=none;startFill=0;exitX=0;exitY=1;exitDx=0;exitDy=0;" edge="1" parent="1" target="7Ly5xIm2dCU_URC9Vnqb-75">
          <mxGeometry relative="1" as="geometry">
            <mxPoint x="446" y="674" as="sourcePoint" />
          </mxGeometry>
        </mxCell>
        <mxCell id="7Ly5xIm2dCU_URC9Vnqb-75" value="&lt;span style=&quot;font-size: 30px;&quot;&gt;H&lt;/span&gt;" style="ellipse;whiteSpace=wrap;html=1;aspect=fixed;" vertex="1" parent="1">
          <mxGeometry x="400" y="680" width="40" height="40" as="geometry" />
        </mxCell>
        <mxCell id="7Ly5xIm2dCU_URC9Vnqb-76" value="&lt;font style=&quot;font-size: 30px;&quot;&gt;F&lt;/font&gt;" style="ellipse;whiteSpace=wrap;html=1;aspect=fixed;" vertex="1" parent="1">
          <mxGeometry x="440" y="720" width="40" height="40" as="geometry" />
        </mxCell>
        <mxCell id="7Ly5xIm2dCU_URC9Vnqb-77" style="rounded=0;orthogonalLoop=1;jettySize=auto;html=1;entryX=0;entryY=0;entryDx=0;entryDy=0;endArrow=none;startFill=0;exitX=1;exitY=1;exitDx=0;exitDy=0;" edge="1" parent="1" target="7Ly5xIm2dCU_URC9Vnqb-76">
          <mxGeometry relative="1" as="geometry">
            <mxPoint x="434" y="714" as="sourcePoint" />
            <mxPoint x="390" y="770" as="targetPoint" />
          </mxGeometry>
        </mxCell>
        <mxCell id="7Ly5xIm2dCU_URC9Vnqb-78" style="rounded=0;orthogonalLoop=1;jettySize=auto;html=1;entryX=1;entryY=0;entryDx=0;entryDy=0;endArrow=none;startFill=0;exitX=0;exitY=1;exitDx=0;exitDy=0;" edge="1" parent="1" source="7Ly5xIm2dCU_URC9Vnqb-63" target="7Ly5xIm2dCU_URC9Vnqb-73">
          <mxGeometry relative="1" as="geometry">
            <mxPoint x="536" y="684" as="sourcePoint" />
            <mxPoint x="524" y="696" as="targetPoint" />
          </mxGeometry>
        </mxCell>
        <mxCell id="7Ly5xIm2dCU_URC9Vnqb-79" style="rounded=0;orthogonalLoop=1;jettySize=auto;html=1;entryX=1;entryY=0;entryDx=0;entryDy=0;endArrow=none;startFill=0;exitX=0;exitY=1;exitDx=0;exitDy=0;" edge="1" parent="1" source="7Ly5xIm2dCU_URC9Vnqb-59" target="7Ly5xIm2dCU_URC9Vnqb-63">
          <mxGeometry relative="1" as="geometry">
            <mxPoint x="576" y="724" as="sourcePoint" />
            <mxPoint x="564" y="736" as="targetPoint" />
          </mxGeometry>
        </mxCell>
        <mxCell id="7Ly5xIm2dCU_URC9Vnqb-80" style="rounded=0;orthogonalLoop=1;jettySize=auto;html=1;entryX=0;entryY=0;entryDx=0;entryDy=0;endArrow=none;startFill=0;exitX=1;exitY=1;exitDx=0;exitDy=0;" edge="1" parent="1" source="7Ly5xIm2dCU_URC9Vnqb-63" target="7Ly5xIm2dCU_URC9Vnqb-71">
          <mxGeometry relative="1" as="geometry">
            <mxPoint x="600" y="708" as="sourcePoint" />
            <mxPoint x="612" y="720" as="targetPoint" />
          </mxGeometry>
        </mxCell>
        <mxCell id="7Ly5xIm2dCU_URC9Vnqb-83" style="rounded=0;orthogonalLoop=1;jettySize=auto;html=1;entryX=0;entryY=0;entryDx=0;entryDy=0;endArrow=none;startFill=0;exitX=1;exitY=1;exitDx=0;exitDy=0;" edge="1" parent="1" source="7Ly5xIm2dCU_URC9Vnqb-54" target="7Ly5xIm2dCU_URC9Vnqb-58">
          <mxGeometry relative="1" as="geometry">
            <mxPoint x="510" y="628" as="sourcePoint" />
            <mxPoint x="522" y="640" as="targetPoint" />
          </mxGeometry>
        </mxCell>
        <mxCell id="7Ly5xIm2dCU_URC9Vnqb-107" style="rounded=0;orthogonalLoop=1;jettySize=auto;html=1;entryX=1;entryY=0;entryDx=0;entryDy=0;endArrow=none;startFill=0;exitX=0;exitY=1;exitDx=0;exitDy=0;" edge="1" parent="1" source="7Ly5xIm2dCU_URC9Vnqb-108" target="7Ly5xIm2dCU_URC9Vnqb-109">
          <mxGeometry relative="1" as="geometry">
            <mxPoint x="125.85786437626894" y="591.142135623731" as="sourcePoint" />
          </mxGeometry>
        </mxCell>
        <mxCell id="7Ly5xIm2dCU_URC9Vnqb-108" value="&lt;font style=&quot;font-size: 30px;&quot;&gt;B&lt;/font&gt;" style="ellipse;whiteSpace=wrap;html=1;aspect=fixed;" vertex="1" parent="1">
          <mxGeometry x="160" y="557" width="40" height="40" as="geometry" />
        </mxCell>
        <mxCell id="7Ly5xIm2dCU_URC9Vnqb-109" value="&lt;font style=&quot;font-size: 30px;&quot;&gt;J&lt;/font&gt;" style="ellipse;whiteSpace=wrap;html=1;aspect=fixed;" vertex="1" parent="1">
          <mxGeometry x="80" y="597" width="40" height="40" as="geometry" />
        </mxCell>
        <mxCell id="7Ly5xIm2dCU_URC9Vnqb-110" value="&lt;font style=&quot;font-size: 30px;&quot;&gt;G&lt;/font&gt;" style="ellipse;whiteSpace=wrap;html=1;aspect=fixed;" vertex="1" parent="1">
          <mxGeometry x="200" y="597" width="40" height="40" as="geometry" />
        </mxCell>
        <mxCell id="7Ly5xIm2dCU_URC9Vnqb-112" value="&lt;font style=&quot;font-size: 30px;&quot;&gt;D&lt;/font&gt;" style="ellipse;whiteSpace=wrap;html=1;aspect=fixed;" vertex="1" parent="1">
          <mxGeometry x="120" y="637" width="40" height="40" as="geometry" />
        </mxCell>
        <mxCell id="7Ly5xIm2dCU_URC9Vnqb-113" value="&lt;font style=&quot;font-size: 30px;&quot;&gt;E&lt;/font&gt;" style="ellipse;whiteSpace=wrap;html=1;aspect=fixed;" vertex="1" parent="1">
          <mxGeometry x="280" y="637" width="40" height="40" as="geometry" />
        </mxCell>
        <mxCell id="7Ly5xIm2dCU_URC9Vnqb-114" style="rounded=0;orthogonalLoop=1;jettySize=auto;html=1;entryX=0;entryY=0;entryDx=0;entryDy=0;endArrow=none;startFill=0;exitX=1;exitY=1;exitDx=0;exitDy=0;" edge="1" parent="1" source="7Ly5xIm2dCU_URC9Vnqb-110" target="7Ly5xIm2dCU_URC9Vnqb-113">
          <mxGeometry relative="1" as="geometry">
            <mxPoint x="280" y="617" as="sourcePoint" />
            <mxPoint x="230" y="687" as="targetPoint" />
          </mxGeometry>
        </mxCell>
        <mxCell id="7Ly5xIm2dCU_URC9Vnqb-115" style="rounded=0;orthogonalLoop=1;jettySize=auto;html=1;entryX=1;entryY=0;entryDx=0;entryDy=0;endArrow=none;startFill=0;exitX=0;exitY=1;exitDx=0;exitDy=0;" edge="1" parent="1" target="7Ly5xIm2dCU_URC9Vnqb-116">
          <mxGeometry relative="1" as="geometry">
            <mxPoint x="126" y="671" as="sourcePoint" />
          </mxGeometry>
        </mxCell>
        <mxCell id="7Ly5xIm2dCU_URC9Vnqb-116" value="&lt;font style=&quot;font-size: 30px;&quot;&gt;K&lt;/font&gt;" style="ellipse;whiteSpace=wrap;html=1;aspect=fixed;" vertex="1" parent="1">
          <mxGeometry x="80" y="677" width="40" height="40" as="geometry" />
        </mxCell>
        <mxCell id="7Ly5xIm2dCU_URC9Vnqb-117" value="&lt;font style=&quot;font-size: 30px;&quot;&gt;A&lt;/font&gt;" style="ellipse;whiteSpace=wrap;html=1;aspect=fixed;" vertex="1" parent="1">
          <mxGeometry x="240" y="677" width="40" height="40" as="geometry" />
        </mxCell>
        <mxCell id="7Ly5xIm2dCU_URC9Vnqb-118" style="rounded=0;orthogonalLoop=1;jettySize=auto;html=1;entryX=1;entryY=0;entryDx=0;entryDy=0;endArrow=none;startFill=0;exitX=0;exitY=1;exitDx=0;exitDy=0;" edge="1" parent="1" target="7Ly5xIm2dCU_URC9Vnqb-119">
          <mxGeometry relative="1" as="geometry">
            <mxPoint x="86" y="631" as="sourcePoint" />
          </mxGeometry>
        </mxCell>
        <mxCell id="7Ly5xIm2dCU_URC9Vnqb-119" value="&lt;font style=&quot;font-size: 30px;&quot;&gt;L&lt;/font&gt;" style="ellipse;whiteSpace=wrap;html=1;aspect=fixed;" vertex="1" parent="1">
          <mxGeometry x="40" y="637" width="40" height="40" as="geometry" />
        </mxCell>
        <mxCell id="7Ly5xIm2dCU_URC9Vnqb-120" value="&lt;font style=&quot;font-size: 30px;&quot;&gt;C&lt;/font&gt;" style="ellipse;whiteSpace=wrap;html=1;aspect=fixed;" vertex="1" parent="1">
          <mxGeometry x="280" y="717" width="40" height="40" as="geometry" />
        </mxCell>
        <mxCell id="7Ly5xIm2dCU_URC9Vnqb-121" value="&lt;font style=&quot;font-size: 30px;&quot;&gt;I&lt;/font&gt;" style="ellipse;whiteSpace=wrap;html=1;aspect=fixed;" vertex="1" parent="1">
          <mxGeometry x="200" y="717" width="40" height="40" as="geometry" />
        </mxCell>
        <mxCell id="7Ly5xIm2dCU_URC9Vnqb-122" style="rounded=0;orthogonalLoop=1;jettySize=auto;html=1;entryX=1;entryY=0;entryDx=0;entryDy=0;endArrow=none;startFill=0;exitX=0;exitY=1;exitDx=0;exitDy=0;" edge="1" parent="1" target="7Ly5xIm2dCU_URC9Vnqb-123">
          <mxGeometry relative="1" as="geometry">
            <mxPoint x="46" y="671" as="sourcePoint" />
          </mxGeometry>
        </mxCell>
        <mxCell id="7Ly5xIm2dCU_URC9Vnqb-123" value="&lt;span style=&quot;font-size: 30px;&quot;&gt;H&lt;/span&gt;" style="ellipse;whiteSpace=wrap;html=1;aspect=fixed;" vertex="1" parent="1">
          <mxGeometry y="677" width="40" height="40" as="geometry" />
        </mxCell>
        <mxCell id="7Ly5xIm2dCU_URC9Vnqb-124" value="&lt;font style=&quot;font-size: 30px;&quot;&gt;F&lt;/font&gt;" style="ellipse;whiteSpace=wrap;html=1;aspect=fixed;" vertex="1" parent="1">
          <mxGeometry x="40" y="717" width="40" height="40" as="geometry" />
        </mxCell>
        <mxCell id="7Ly5xIm2dCU_URC9Vnqb-125" style="rounded=0;orthogonalLoop=1;jettySize=auto;html=1;entryX=0;entryY=0;entryDx=0;entryDy=0;endArrow=none;startFill=0;exitX=1;exitY=1;exitDx=0;exitDy=0;" edge="1" parent="1" target="7Ly5xIm2dCU_URC9Vnqb-124">
          <mxGeometry relative="1" as="geometry">
            <mxPoint x="34" y="711" as="sourcePoint" />
            <mxPoint x="-10" y="767" as="targetPoint" />
          </mxGeometry>
        </mxCell>
        <mxCell id="7Ly5xIm2dCU_URC9Vnqb-126" style="rounded=0;orthogonalLoop=1;jettySize=auto;html=1;entryX=1;entryY=0;entryDx=0;entryDy=0;endArrow=none;startFill=0;exitX=0;exitY=1;exitDx=0;exitDy=0;" edge="1" parent="1" target="7Ly5xIm2dCU_URC9Vnqb-121">
          <mxGeometry relative="1" as="geometry">
            <mxPoint x="245.85786437626894" y="711.1421356237311" as="sourcePoint" />
            <mxPoint x="204" y="693" as="targetPoint" />
          </mxGeometry>
        </mxCell>
        <mxCell id="7Ly5xIm2dCU_URC9Vnqb-127" style="rounded=0;orthogonalLoop=1;jettySize=auto;html=1;entryX=1;entryY=0;entryDx=0;entryDy=0;endArrow=none;startFill=0;exitX=0;exitY=1;exitDx=0;exitDy=0;" edge="1" parent="1" source="7Ly5xIm2dCU_URC9Vnqb-113" target="7Ly5xIm2dCU_URC9Vnqb-117">
          <mxGeometry relative="1" as="geometry">
            <mxPoint x="275.85786437626894" y="671.1421356237312" as="sourcePoint" />
            <mxPoint x="244" y="733" as="targetPoint" />
          </mxGeometry>
        </mxCell>
        <mxCell id="7Ly5xIm2dCU_URC9Vnqb-128" style="rounded=0;orthogonalLoop=1;jettySize=auto;html=1;entryX=0;entryY=0;entryDx=0;entryDy=0;endArrow=none;startFill=0;exitX=1;exitY=1;exitDx=0;exitDy=0;" edge="1" parent="1" source="7Ly5xIm2dCU_URC9Vnqb-117" target="7Ly5xIm2dCU_URC9Vnqb-120">
          <mxGeometry relative="1" as="geometry">
            <mxPoint x="280" y="705" as="sourcePoint" />
            <mxPoint x="292" y="717" as="targetPoint" />
          </mxGeometry>
        </mxCell>
        <mxCell id="7Ly5xIm2dCU_URC9Vnqb-129" style="rounded=0;orthogonalLoop=1;jettySize=auto;html=1;entryX=0;entryY=0;entryDx=0;entryDy=0;endArrow=none;startFill=0;exitX=1;exitY=1;exitDx=0;exitDy=0;" edge="1" parent="1" source="7Ly5xIm2dCU_URC9Vnqb-109" target="7Ly5xIm2dCU_URC9Vnqb-112">
          <mxGeometry relative="1" as="geometry">
            <mxPoint x="110" y="625" as="sourcePoint" />
            <mxPoint x="122" y="637" as="targetPoint" />
          </mxGeometry>
        </mxCell>
        <mxCell id="7Ly5xIm2dCU_URC9Vnqb-131" style="rounded=0;orthogonalLoop=1;jettySize=auto;html=1;entryX=0;entryY=0;entryDx=0;entryDy=0;endArrow=none;startFill=0;exitX=1;exitY=1;exitDx=0;exitDy=0;" edge="1" parent="1" source="7Ly5xIm2dCU_URC9Vnqb-108" target="7Ly5xIm2dCU_URC9Vnqb-110">
          <mxGeometry relative="1" as="geometry">
            <mxPoint x="170" y="587" as="sourcePoint" />
            <mxPoint x="124" y="613" as="targetPoint" />
          </mxGeometry>
        </mxCell>
        <mxCell id="7Ly5xIm2dCU_URC9Vnqb-132" style="rounded=0;orthogonalLoop=1;jettySize=auto;html=1;entryX=1;entryY=0;entryDx=0;entryDy=0;endArrow=none;startFill=0;exitX=0;exitY=1;exitDx=0;exitDy=0;" edge="1" parent="1" source="7Ly5xIm2dCU_URC9Vnqb-133" target="7Ly5xIm2dCU_URC9Vnqb-134">
          <mxGeometry relative="1" as="geometry">
            <mxPoint x="45.857864376268935" y="874.142135623731" as="sourcePoint" />
          </mxGeometry>
        </mxCell>
        <mxCell id="7Ly5xIm2dCU_URC9Vnqb-133" value="&lt;font style=&quot;font-size: 30px;&quot;&gt;F&lt;/font&gt;" style="ellipse;whiteSpace=wrap;html=1;aspect=fixed;" vertex="1" parent="1">
          <mxGeometry x="80" y="840" width="40" height="40" as="geometry" />
        </mxCell>
        <mxCell id="7Ly5xIm2dCU_URC9Vnqb-134" value="&lt;font style=&quot;font-size: 30px;&quot;&gt;С&lt;/font&gt;" style="ellipse;whiteSpace=wrap;html=1;aspect=fixed;" vertex="1" parent="1">
          <mxGeometry x="40" y="880" width="40" height="40" as="geometry" />
        </mxCell>
        <mxCell id="7Ly5xIm2dCU_URC9Vnqb-135" value="&lt;font style=&quot;font-size: 30px;&quot;&gt;A&lt;/font&gt;" style="ellipse;whiteSpace=wrap;html=1;aspect=fixed;" vertex="1" parent="1">
          <mxGeometry x="120" y="880" width="40" height="40" as="geometry" />
        </mxCell>
        <mxCell id="7Ly5xIm2dCU_URC9Vnqb-137" value="&lt;span style=&quot;font-size: 30px;&quot;&gt;G&lt;/span&gt;" style="ellipse;whiteSpace=wrap;html=1;aspect=fixed;" vertex="1" parent="1">
          <mxGeometry x="160" y="920" width="40" height="40" as="geometry" />
        </mxCell>
        <mxCell id="7Ly5xIm2dCU_URC9Vnqb-138" style="rounded=0;orthogonalLoop=1;jettySize=auto;html=1;entryX=0;entryY=0;entryDx=0;entryDy=0;endArrow=none;startFill=0;exitX=1;exitY=1;exitDx=0;exitDy=0;" edge="1" parent="1" source="7Ly5xIm2dCU_URC9Vnqb-135" target="7Ly5xIm2dCU_URC9Vnqb-137">
          <mxGeometry relative="1" as="geometry">
            <mxPoint x="200" y="900" as="sourcePoint" />
            <mxPoint x="150" y="970" as="targetPoint" />
          </mxGeometry>
        </mxCell>
        <mxCell id="7Ly5xIm2dCU_URC9Vnqb-144" value="&lt;font style=&quot;font-size: 30px;&quot;&gt;H&lt;/font&gt;" style="ellipse;whiteSpace=wrap;html=1;aspect=fixed;" vertex="1" parent="1">
          <mxGeometry x="200" y="960" width="40" height="40" as="geometry" />
        </mxCell>
        <mxCell id="7Ly5xIm2dCU_URC9Vnqb-145" value="&lt;font style=&quot;font-size: 30px;&quot;&gt;B&lt;/font&gt;" style="ellipse;whiteSpace=wrap;html=1;aspect=fixed;" vertex="1" parent="1">
          <mxGeometry x="160" y="1000" width="40" height="40" as="geometry" />
        </mxCell>
        <mxCell id="7Ly5xIm2dCU_URC9Vnqb-150" style="rounded=0;orthogonalLoop=1;jettySize=auto;html=1;entryX=1;entryY=0;entryDx=0;entryDy=0;endArrow=none;startFill=0;exitX=0;exitY=1;exitDx=0;exitDy=0;" edge="1" parent="1" target="7Ly5xIm2dCU_URC9Vnqb-145" source="7Ly5xIm2dCU_URC9Vnqb-144">
          <mxGeometry relative="1" as="geometry">
            <mxPoint x="235.85786437626894" y="994.1421356237311" as="sourcePoint" />
            <mxPoint x="194" y="976" as="targetPoint" />
          </mxGeometry>
        </mxCell>
        <mxCell id="7Ly5xIm2dCU_URC9Vnqb-152" style="rounded=0;orthogonalLoop=1;jettySize=auto;html=1;entryX=0;entryY=0;entryDx=0;entryDy=0;endArrow=none;startFill=0;exitX=1;exitY=1;exitDx=0;exitDy=0;" edge="1" parent="1" target="7Ly5xIm2dCU_URC9Vnqb-144">
          <mxGeometry relative="1" as="geometry">
            <mxPoint x="194.1421356237313" y="954.1421356237313" as="sourcePoint" />
            <mxPoint x="282" y="1000" as="targetPoint" />
          </mxGeometry>
        </mxCell>
        <mxCell id="7Ly5xIm2dCU_URC9Vnqb-154" style="rounded=0;orthogonalLoop=1;jettySize=auto;html=1;entryX=0;entryY=0;entryDx=0;entryDy=0;endArrow=none;startFill=0;exitX=1;exitY=1;exitDx=0;exitDy=0;" edge="1" parent="1" source="7Ly5xIm2dCU_URC9Vnqb-133" target="7Ly5xIm2dCU_URC9Vnqb-135">
          <mxGeometry relative="1" as="geometry">
            <mxPoint x="90" y="870" as="sourcePoint" />
            <mxPoint x="44" y="896" as="targetPoint" />
          </mxGeometry>
        </mxCell>
        <mxCell id="7Ly5xIm2dCU_URC9Vnqb-155" value="&lt;font style=&quot;font-size: 30px;&quot;&gt;I&lt;/font&gt;" style="ellipse;whiteSpace=wrap;html=1;aspect=fixed;" vertex="1" parent="1">
          <mxGeometry x="80" y="920" width="40" height="40" as="geometry" />
        </mxCell>
        <mxCell id="7Ly5xIm2dCU_URC9Vnqb-156" style="rounded=0;orthogonalLoop=1;jettySize=auto;html=1;entryX=1;entryY=0;entryDx=0;entryDy=0;endArrow=none;startFill=0;exitX=0;exitY=1;exitDx=0;exitDy=0;" edge="1" parent="1" target="7Ly5xIm2dCU_URC9Vnqb-155">
          <mxGeometry relative="1" as="geometry">
            <mxPoint x="125.85786437626894" y="914.1421356237311" as="sourcePoint" />
            <mxPoint x="84" y="896" as="targetPoint" />
          </mxGeometry>
        </mxCell>
        <mxCell id="7Ly5xIm2dCU_URC9Vnqb-157" value="&lt;font style=&quot;font-size: 30px;&quot;&gt;E&lt;/font&gt;" style="ellipse;whiteSpace=wrap;html=1;aspect=fixed;" vertex="1" parent="1">
          <mxGeometry x="40" y="960" width="40" height="40" as="geometry" />
        </mxCell>
        <mxCell id="7Ly5xIm2dCU_URC9Vnqb-158" style="rounded=0;orthogonalLoop=1;jettySize=auto;html=1;entryX=1;entryY=0;entryDx=0;entryDy=0;endArrow=none;startFill=0;exitX=0;exitY=1;exitDx=0;exitDy=0;" edge="1" parent="1" target="7Ly5xIm2dCU_URC9Vnqb-157">
          <mxGeometry relative="1" as="geometry">
            <mxPoint x="85.85786437626894" y="954.1421356237311" as="sourcePoint" />
            <mxPoint x="44" y="936" as="targetPoint" />
          </mxGeometry>
        </mxCell>
        <mxCell id="7Ly5xIm2dCU_URC9Vnqb-162" value="&lt;font style=&quot;font-size: 30px;&quot;&gt;K&lt;/font&gt;" style="ellipse;whiteSpace=wrap;html=1;aspect=fixed;" vertex="1" parent="1">
          <mxGeometry x="120" y="960" width="40" height="40" as="geometry" />
        </mxCell>
        <mxCell id="7Ly5xIm2dCU_URC9Vnqb-163" style="rounded=0;orthogonalLoop=1;jettySize=auto;html=1;entryX=1;entryY=1;entryDx=0;entryDy=0;endArrow=none;startFill=0;exitX=0;exitY=0;exitDx=0;exitDy=0;" edge="1" parent="1" source="7Ly5xIm2dCU_URC9Vnqb-162" target="7Ly5xIm2dCU_URC9Vnqb-155">
          <mxGeometry relative="1" as="geometry">
            <mxPoint x="125.85786437626894" y="994.1421356237311" as="sourcePoint" />
            <mxPoint x="114" y="1006" as="targetPoint" />
          </mxGeometry>
        </mxCell>
        <mxCell id="7Ly5xIm2dCU_URC9Vnqb-164" value="&lt;font style=&quot;font-size: 30px;&quot;&gt;J&lt;/font&gt;" style="ellipse;whiteSpace=wrap;html=1;aspect=fixed;" vertex="1" parent="1">
          <mxGeometry x="80" y="1000" width="40" height="40" as="geometry" />
        </mxCell>
        <mxCell id="7Ly5xIm2dCU_URC9Vnqb-165" style="rounded=0;orthogonalLoop=1;jettySize=auto;html=1;entryX=1;entryY=0;entryDx=0;entryDy=0;endArrow=none;startFill=0;exitX=0;exitY=1;exitDx=0;exitDy=0;" edge="1" parent="1" target="7Ly5xIm2dCU_URC9Vnqb-164">
          <mxGeometry relative="1" as="geometry">
            <mxPoint x="125.85786437626894" y="994.1421356237311" as="sourcePoint" />
            <mxPoint x="84" y="976" as="targetPoint" />
          </mxGeometry>
        </mxCell>
        <mxCell id="7Ly5xIm2dCU_URC9Vnqb-166" value="&lt;font style=&quot;font-size: 30px;&quot;&gt;D&lt;/font&gt;" style="ellipse;whiteSpace=wrap;html=1;aspect=fixed;" vertex="1" parent="1">
          <mxGeometry x="240" y="1000" width="40" height="40" as="geometry" />
        </mxCell>
        <mxCell id="7Ly5xIm2dCU_URC9Vnqb-168" style="rounded=0;orthogonalLoop=1;jettySize=auto;html=1;entryX=1;entryY=1;entryDx=0;entryDy=0;endArrow=none;startFill=0;exitX=0;exitY=0;exitDx=0;exitDy=0;" edge="1" parent="1" source="7Ly5xIm2dCU_URC9Vnqb-166" target="7Ly5xIm2dCU_URC9Vnqb-144">
          <mxGeometry relative="1" as="geometry">
            <mxPoint x="252" y="1000" as="sourcePoint" />
            <mxPoint x="240" y="988" as="targetPoint" />
          </mxGeometry>
        </mxCell>
        <mxCell id="7Ly5xIm2dCU_URC9Vnqb-177" value="&lt;font style=&quot;font-size: 30px;&quot;&gt;20&lt;/font&gt;" style="ellipse;whiteSpace=wrap;html=1;aspect=fixed;" vertex="1" parent="1">
          <mxGeometry x="880" y="40" width="40" height="40" as="geometry" />
        </mxCell>
        <mxCell id="7Ly5xIm2dCU_URC9Vnqb-178" value="&lt;font style=&quot;font-size: 30px;&quot;&gt;10&lt;/font&gt;" style="ellipse;whiteSpace=wrap;html=1;aspect=fixed;" vertex="1" parent="1">
          <mxGeometry x="960" y="40" width="40" height="40" as="geometry" />
        </mxCell>
        <mxCell id="7Ly5xIm2dCU_URC9Vnqb-179" value="&lt;font style=&quot;font-size: 30px;&quot;&gt;5&lt;/font&gt;" style="ellipse;whiteSpace=wrap;html=1;aspect=fixed;" vertex="1" parent="1">
          <mxGeometry x="1040" y="40" width="40" height="40" as="geometry" />
        </mxCell>
        <mxCell id="7Ly5xIm2dCU_URC9Vnqb-180" value="&lt;font style=&quot;font-size: 30px;&quot;&gt;2&lt;/font&gt;" style="ellipse;whiteSpace=wrap;html=1;aspect=fixed;" vertex="1" parent="1">
          <mxGeometry x="1120" y="40" width="40" height="40" as="geometry" />
        </mxCell>
        <mxCell id="7Ly5xIm2dCU_URC9Vnqb-181" value="&lt;font style=&quot;font-size: 30px;&quot;&gt;8&lt;/font&gt;" style="ellipse;whiteSpace=wrap;html=1;aspect=fixed;" vertex="1" parent="1">
          <mxGeometry x="1200" y="40" width="40" height="40" as="geometry" />
        </mxCell>
        <mxCell id="7Ly5xIm2dCU_URC9Vnqb-182" value="&lt;font style=&quot;font-size: 30px;&quot;&gt;30&lt;/font&gt;" style="ellipse;whiteSpace=wrap;html=1;aspect=fixed;" vertex="1" parent="1">
          <mxGeometry x="1280" y="40" width="40" height="40" as="geometry" />
        </mxCell>
        <mxCell id="7Ly5xIm2dCU_URC9Vnqb-183" value="&lt;font style=&quot;font-size: 30px;&quot;&gt;27&lt;/font&gt;" style="ellipse;whiteSpace=wrap;html=1;aspect=fixed;" vertex="1" parent="1">
          <mxGeometry x="1360" y="40" width="40" height="40" as="geometry" />
        </mxCell>
        <mxCell id="7Ly5xIm2dCU_URC9Vnqb-184" value="&lt;font style=&quot;font-size: 30px;&quot;&gt;40&lt;/font&gt;" style="ellipse;whiteSpace=wrap;html=1;aspect=fixed;" vertex="1" parent="1">
          <mxGeometry x="1440" y="40" width="40" height="40" as="geometry" />
        </mxCell>
        <mxCell id="7Ly5xIm2dCU_URC9Vnqb-185" value="&lt;font style=&quot;font-size: 30px;&quot;&gt;20&lt;/font&gt;" style="ellipse;whiteSpace=wrap;html=1;aspect=fixed;" vertex="1" parent="1">
          <mxGeometry x="960" y="520" width="40" height="40" as="geometry" />
        </mxCell>
        <mxCell id="7Ly5xIm2dCU_URC9Vnqb-186" value="&lt;font style=&quot;font-size: 30px;&quot;&gt;10&lt;/font&gt;" style="ellipse;whiteSpace=wrap;html=1;aspect=fixed;" vertex="1" parent="1">
          <mxGeometry x="920" y="560" width="40" height="40" as="geometry" />
        </mxCell>
        <mxCell id="7Ly5xIm2dCU_URC9Vnqb-187" value="&lt;font style=&quot;font-size: 30px;&quot;&gt;5&lt;/font&gt;" style="ellipse;whiteSpace=wrap;html=1;aspect=fixed;" vertex="1" parent="1">
          <mxGeometry x="880" y="600" width="40" height="40" as="geometry" />
        </mxCell>
        <mxCell id="7Ly5xIm2dCU_URC9Vnqb-188" value="&lt;font style=&quot;font-size: 30px;&quot;&gt;2&lt;/font&gt;" style="ellipse;whiteSpace=wrap;html=1;aspect=fixed;" vertex="1" parent="1">
          <mxGeometry x="840" y="640" width="40" height="40" as="geometry" />
        </mxCell>
        <mxCell id="7Ly5xIm2dCU_URC9Vnqb-193" value="" style="endArrow=none;html=1;rounded=0;exitX=1;exitY=0;exitDx=0;exitDy=0;entryX=0;entryY=1;entryDx=0;entryDy=0;" edge="1" parent="1" source="7Ly5xIm2dCU_URC9Vnqb-186" target="7Ly5xIm2dCU_URC9Vnqb-185">
          <mxGeometry width="50" height="50" relative="1" as="geometry">
            <mxPoint x="970" y="640" as="sourcePoint" />
            <mxPoint x="1020" y="590" as="targetPoint" />
          </mxGeometry>
        </mxCell>
        <mxCell id="7Ly5xIm2dCU_URC9Vnqb-194" value="" style="endArrow=none;html=1;rounded=0;exitX=1;exitY=0;exitDx=0;exitDy=0;entryX=0;entryY=1;entryDx=0;entryDy=0;" edge="1" parent="1" source="7Ly5xIm2dCU_URC9Vnqb-187" target="7Ly5xIm2dCU_URC9Vnqb-186">
          <mxGeometry width="50" height="50" relative="1" as="geometry">
            <mxPoint x="964" y="576" as="sourcePoint" />
            <mxPoint x="976" y="564" as="targetPoint" />
          </mxGeometry>
        </mxCell>
        <mxCell id="7Ly5xIm2dCU_URC9Vnqb-195" value="" style="endArrow=none;html=1;rounded=0;exitX=1;exitY=0;exitDx=0;exitDy=0;entryX=0;entryY=1;entryDx=0;entryDy=0;" edge="1" parent="1" source="7Ly5xIm2dCU_URC9Vnqb-188" target="7Ly5xIm2dCU_URC9Vnqb-187">
          <mxGeometry width="50" height="50" relative="1" as="geometry">
            <mxPoint x="964" y="576" as="sourcePoint" />
            <mxPoint x="976" y="564" as="targetPoint" />
          </mxGeometry>
        </mxCell>
        <mxCell id="7Ly5xIm2dCU_URC9Vnqb-200" value="&lt;font style=&quot;font-size: 30px;&quot;&gt;8&lt;/font&gt;" style="ellipse;whiteSpace=wrap;html=1;aspect=fixed;" vertex="1" parent="1">
          <mxGeometry x="920" y="640" width="40" height="40" as="geometry" />
        </mxCell>
        <mxCell id="7Ly5xIm2dCU_URC9Vnqb-203" value="" style="endArrow=none;html=1;rounded=0;exitX=1;exitY=1;exitDx=0;exitDy=0;entryX=0;entryY=0;entryDx=0;entryDy=0;" edge="1" parent="1" source="7Ly5xIm2dCU_URC9Vnqb-187" target="7Ly5xIm2dCU_URC9Vnqb-200">
          <mxGeometry width="50" height="50" relative="1" as="geometry">
            <mxPoint x="914" y="686" as="sourcePoint" />
            <mxPoint x="926" y="674" as="targetPoint" />
          </mxGeometry>
        </mxCell>
        <mxCell id="7Ly5xIm2dCU_URC9Vnqb-204" value="&lt;font style=&quot;font-size: 30px;&quot;&gt;30&lt;/font&gt;" style="ellipse;whiteSpace=wrap;html=1;aspect=fixed;" vertex="1" parent="1">
          <mxGeometry x="1000" y="560" width="40" height="40" as="geometry" />
        </mxCell>
        <mxCell id="7Ly5xIm2dCU_URC9Vnqb-205" value="" style="endArrow=none;html=1;rounded=0;exitX=1;exitY=1;exitDx=0;exitDy=0;entryX=0;entryY=0;entryDx=0;entryDy=0;" edge="1" parent="1" target="7Ly5xIm2dCU_URC9Vnqb-204" source="7Ly5xIm2dCU_URC9Vnqb-185">
          <mxGeometry width="50" height="50" relative="1" as="geometry">
            <mxPoint x="754" y="766" as="sourcePoint" />
            <mxPoint x="866" y="694" as="targetPoint" />
          </mxGeometry>
        </mxCell>
        <mxCell id="7Ly5xIm2dCU_URC9Vnqb-206" value="&lt;font style=&quot;font-size: 30px;&quot;&gt;27&lt;/font&gt;" style="ellipse;whiteSpace=wrap;html=1;aspect=fixed;" vertex="1" parent="1">
          <mxGeometry x="960" y="600" width="40" height="40" as="geometry" />
        </mxCell>
        <mxCell id="7Ly5xIm2dCU_URC9Vnqb-207" value="&lt;font style=&quot;font-size: 30px;&quot;&gt;40&lt;/font&gt;" style="ellipse;whiteSpace=wrap;html=1;aspect=fixed;" vertex="1" parent="1">
          <mxGeometry x="1040" y="600" width="40" height="40" as="geometry" />
        </mxCell>
        <mxCell id="7Ly5xIm2dCU_URC9Vnqb-208" value="" style="endArrow=none;html=1;rounded=0;exitX=0;exitY=0;exitDx=0;exitDy=0;entryX=1;entryY=1;entryDx=0;entryDy=0;" edge="1" parent="1" source="7Ly5xIm2dCU_URC9Vnqb-207" target="7Ly5xIm2dCU_URC9Vnqb-204">
          <mxGeometry width="50" height="50" relative="1" as="geometry">
            <mxPoint x="1124" y="576" as="sourcePoint" />
            <mxPoint x="1085.8578643762921" y="594.1421356237076" as="targetPoint" />
          </mxGeometry>
        </mxCell>
        <mxCell id="7Ly5xIm2dCU_URC9Vnqb-209" value="" style="endArrow=none;html=1;rounded=0;exitX=1;exitY=0;exitDx=0;exitDy=0;entryX=0;entryY=1;entryDx=0;entryDy=0;" edge="1" parent="1" source="7Ly5xIm2dCU_URC9Vnqb-206" target="7Ly5xIm2dCU_URC9Vnqb-204">
          <mxGeometry width="50" height="50" relative="1" as="geometry">
            <mxPoint x="924" y="616" as="sourcePoint" />
            <mxPoint x="936" y="604" as="targetPoint" />
          </mxGeometry>
        </mxCell>
        <mxCell id="7Ly5xIm2dCU_URC9Vnqb-210" value="&lt;font style=&quot;color: rgb(255, 0, 0);&quot;&gt;1&lt;/font&gt;" style="text;html=1;align=center;verticalAlign=middle;whiteSpace=wrap;rounded=0;" vertex="1" parent="1">
          <mxGeometry x="971.5" y="500" width="17" height="30" as="geometry" />
        </mxCell>
        <mxCell id="7Ly5xIm2dCU_URC9Vnqb-211" value="&lt;font style=&quot;color: rgb(255, 0, 0);&quot;&gt;1&lt;/font&gt;" style="text;html=1;align=center;verticalAlign=middle;whiteSpace=wrap;rounded=0;" vertex="1" parent="1">
          <mxGeometry x="891.5" y="7" width="17" height="30" as="geometry" />
        </mxCell>
        <mxCell id="7Ly5xIm2dCU_URC9Vnqb-212" value="&lt;font style=&quot;color: rgb(255, 0, 0);&quot;&gt;2&lt;/font&gt;" style="text;html=1;align=center;verticalAlign=middle;whiteSpace=wrap;rounded=0;" vertex="1" parent="1">
          <mxGeometry x="971.5" y="7" width="17" height="30" as="geometry" />
        </mxCell>
        <mxCell id="7Ly5xIm2dCU_URC9Vnqb-213" value="&lt;font style=&quot;color: rgb(255, 0, 0);&quot;&gt;3&lt;/font&gt;" style="text;html=1;align=center;verticalAlign=middle;whiteSpace=wrap;rounded=0;" vertex="1" parent="1">
          <mxGeometry x="1051.5" y="4" width="17" height="30" as="geometry" />
        </mxCell>
        <mxCell id="7Ly5xIm2dCU_URC9Vnqb-214" value="&lt;font style=&quot;color: rgb(255, 0, 0);&quot;&gt;4&lt;/font&gt;" style="text;html=1;align=center;verticalAlign=middle;whiteSpace=wrap;rounded=0;" vertex="1" parent="1">
          <mxGeometry x="1131.5" y="7" width="17" height="30" as="geometry" />
        </mxCell>
        <mxCell id="7Ly5xIm2dCU_URC9Vnqb-215" value="&lt;font style=&quot;color: rgb(255, 0, 0);&quot;&gt;5&lt;/font&gt;" style="text;html=1;align=center;verticalAlign=middle;whiteSpace=wrap;rounded=0;" vertex="1" parent="1">
          <mxGeometry x="1209" y="4" width="17" height="30" as="geometry" />
        </mxCell>
        <mxCell id="7Ly5xIm2dCU_URC9Vnqb-216" value="&lt;font style=&quot;color: rgb(255, 0, 0);&quot;&gt;6&lt;/font&gt;" style="text;html=1;align=center;verticalAlign=middle;whiteSpace=wrap;rounded=0;" vertex="1" parent="1">
          <mxGeometry x="1291.5" y="4" width="17" height="30" as="geometry" />
        </mxCell>
        <mxCell id="7Ly5xIm2dCU_URC9Vnqb-217" value="&lt;font style=&quot;color: rgb(255, 0, 0);&quot;&gt;7&lt;/font&gt;" style="text;html=1;align=center;verticalAlign=middle;whiteSpace=wrap;rounded=0;" vertex="1" parent="1">
          <mxGeometry x="1371.5" y="4" width="17" height="30" as="geometry" />
        </mxCell>
        <mxCell id="7Ly5xIm2dCU_URC9Vnqb-218" value="&lt;font style=&quot;color: rgb(255, 0, 0);&quot;&gt;8&lt;/font&gt;" style="text;html=1;align=center;verticalAlign=middle;whiteSpace=wrap;rounded=0;" vertex="1" parent="1">
          <mxGeometry x="1451.5" y="4" width="17" height="30" as="geometry" />
        </mxCell>
        <mxCell id="7Ly5xIm2dCU_URC9Vnqb-219" value="&lt;font style=&quot;color: rgb(255, 0, 0);&quot;&gt;2&lt;/font&gt;" style="text;html=1;align=center;verticalAlign=middle;whiteSpace=wrap;rounded=0;" vertex="1" parent="1">
          <mxGeometry x="931.5" y="539" width="17" height="30" as="geometry" />
        </mxCell>
        <mxCell id="7Ly5xIm2dCU_URC9Vnqb-221" value="&lt;font style=&quot;color: rgb(255, 0, 0);&quot;&gt;3&lt;/font&gt;" style="text;html=1;align=center;verticalAlign=middle;whiteSpace=wrap;rounded=0;" vertex="1" parent="1">
          <mxGeometry x="889" y="580" width="17" height="30" as="geometry" />
        </mxCell>
        <mxCell id="7Ly5xIm2dCU_URC9Vnqb-222" value="&lt;font style=&quot;color: rgb(255, 0, 0);&quot;&gt;4&lt;/font&gt;" style="text;html=1;align=center;verticalAlign=middle;whiteSpace=wrap;rounded=0;" vertex="1" parent="1">
          <mxGeometry x="849" y="619" width="17" height="30" as="geometry" />
        </mxCell>
        <mxCell id="7Ly5xIm2dCU_URC9Vnqb-223" value="&lt;font style=&quot;color: rgb(255, 0, 0);&quot;&gt;5&lt;/font&gt;" style="text;html=1;align=center;verticalAlign=middle;whiteSpace=wrap;rounded=0;" vertex="1" parent="1">
          <mxGeometry x="931.5" y="619" width="17" height="30" as="geometry" />
        </mxCell>
        <mxCell id="7Ly5xIm2dCU_URC9Vnqb-224" value="&lt;font style=&quot;color: rgb(255, 0, 0);&quot;&gt;6&lt;/font&gt;" style="text;html=1;align=center;verticalAlign=middle;whiteSpace=wrap;rounded=0;" vertex="1" parent="1">
          <mxGeometry x="1011.5" y="539" width="17" height="30" as="geometry" />
        </mxCell>
        <mxCell id="7Ly5xIm2dCU_URC9Vnqb-226" value="&lt;font style=&quot;color: rgb(255, 0, 0);&quot;&gt;7&lt;/font&gt;" style="text;html=1;align=center;verticalAlign=middle;whiteSpace=wrap;rounded=0;" vertex="1" parent="1">
          <mxGeometry x="971.5" y="577" width="17" height="30" as="geometry" />
        </mxCell>
        <mxCell id="7Ly5xIm2dCU_URC9Vnqb-227" value="&lt;font style=&quot;color: rgb(255, 0, 0);&quot;&gt;6&lt;/font&gt;" style="text;html=1;align=center;verticalAlign=middle;whiteSpace=wrap;rounded=0;" vertex="1" parent="1">
          <mxGeometry x="695" y="714.5" width="17" height="30" as="geometry" />
        </mxCell>
        <mxCell id="7Ly5xIm2dCU_URC9Vnqb-229" value="&lt;font style=&quot;color: rgb(255, 0, 0);&quot;&gt;8&lt;/font&gt;" style="text;html=1;align=center;verticalAlign=middle;whiteSpace=wrap;rounded=0;" vertex="1" parent="1">
          <mxGeometry x="1051.5" y="577" width="17" height="30" as="geometry" />
        </mxCell>
        <mxCell id="7Ly5xIm2dCU_URC9Vnqb-231" value="&lt;font style=&quot;font-size: 30px;&quot;&gt;10&lt;/font&gt;" style="ellipse;whiteSpace=wrap;html=1;aspect=fixed;" vertex="1" parent="1">
          <mxGeometry x="1441" y="600" width="40" height="40" as="geometry" />
        </mxCell>
        <mxCell id="7Ly5xIm2dCU_URC9Vnqb-233" value="&lt;font style=&quot;font-size: 30px;&quot;&gt;8&lt;/font&gt;" style="ellipse;whiteSpace=wrap;html=1;aspect=fixed;" vertex="1" parent="1">
          <mxGeometry x="1599.5" y="600" width="40" height="40" as="geometry" />
        </mxCell>
        <mxCell id="7Ly5xIm2dCU_URC9Vnqb-237" value="&lt;font style=&quot;font-size: 30px;&quot;&gt;2&lt;/font&gt;" style="ellipse;whiteSpace=wrap;html=1;aspect=fixed;" vertex="1" parent="1">
          <mxGeometry x="1480" y="560" width="40" height="40" as="geometry" />
        </mxCell>
        <mxCell id="7Ly5xIm2dCU_URC9Vnqb-239" value="&lt;font style=&quot;font-size: 30px;&quot;&gt;27&lt;/font&gt;" style="ellipse;whiteSpace=wrap;html=1;aspect=fixed;" vertex="1" parent="1">
          <mxGeometry x="1640" y="560" width="40" height="40" as="geometry" />
        </mxCell>
        <mxCell id="7Ly5xIm2dCU_URC9Vnqb-241" value="&lt;font style=&quot;font-size: 30px;&quot;&gt;30&lt;/font&gt;" style="ellipse;whiteSpace=wrap;html=1;aspect=fixed;" vertex="1" parent="1">
          <mxGeometry x="1680" y="599" width="40" height="40" as="geometry" />
        </mxCell>
        <mxCell id="7Ly5xIm2dCU_URC9Vnqb-242" value="&lt;font style=&quot;font-size: 30px;&quot;&gt;40&lt;/font&gt;" style="ellipse;whiteSpace=wrap;html=1;aspect=fixed;" vertex="1" parent="1">
          <mxGeometry x="1561" y="521" width="40" height="40" as="geometry" />
        </mxCell>
        <mxCell id="7Ly5xIm2dCU_URC9Vnqb-243" value="" style="endArrow=none;html=1;rounded=0;exitX=0;exitY=0;exitDx=0;exitDy=0;entryX=1;entryY=1;entryDx=0;entryDy=0;" edge="1" parent="1" source="7Ly5xIm2dCU_URC9Vnqb-241" target="7Ly5xIm2dCU_URC9Vnqb-239">
          <mxGeometry width="50" height="50" relative="1" as="geometry">
            <mxPoint x="1686.8578643762685" y="605.8578643762686" as="sourcePoint" />
            <mxPoint x="1726.8578643762921" y="594.1421356237076" as="targetPoint" />
          </mxGeometry>
        </mxCell>
        <mxCell id="7Ly5xIm2dCU_URC9Vnqb-246" value="&lt;font style=&quot;color: rgb(255, 0, 0);&quot;&gt;2&lt;/font&gt;" style="text;html=1;align=center;verticalAlign=middle;whiteSpace=wrap;rounded=0;" vertex="1" parent="1">
          <mxGeometry x="1451.5" y="579" width="17" height="30" as="geometry" />
        </mxCell>
        <mxCell id="7Ly5xIm2dCU_URC9Vnqb-249" value="&lt;font style=&quot;color: rgb(255, 0, 0);&quot;&gt;4&lt;/font&gt;" style="text;html=1;align=center;verticalAlign=middle;whiteSpace=wrap;rounded=0;" vertex="1" parent="1">
          <mxGeometry x="1492.5" y="538" width="17" height="30" as="geometry" />
        </mxCell>
        <mxCell id="7Ly5xIm2dCU_URC9Vnqb-250" value="&lt;font style=&quot;color: rgb(255, 0, 0);&quot;&gt;7&lt;/font&gt;" style="text;html=1;align=center;verticalAlign=middle;whiteSpace=wrap;rounded=0;" vertex="1" parent="1">
          <mxGeometry x="1651.5" y="538" width="17" height="30" as="geometry" />
        </mxCell>
        <mxCell id="7Ly5xIm2dCU_URC9Vnqb-251" value="&lt;font style=&quot;color: rgb(255, 0, 0);&quot;&gt;6&lt;/font&gt;" style="text;html=1;align=center;verticalAlign=middle;whiteSpace=wrap;rounded=0;" vertex="1" parent="1">
          <mxGeometry x="1691.5" y="578" width="17" height="30" as="geometry" />
        </mxCell>
        <mxCell id="7Ly5xIm2dCU_URC9Vnqb-257" value="&lt;font style=&quot;font-size: 30px;&quot;&gt;5&lt;/font&gt;" style="ellipse;whiteSpace=wrap;html=1;aspect=fixed;" vertex="1" parent="1">
          <mxGeometry x="1518.5" y="599" width="40" height="40" as="geometry" />
        </mxCell>
        <mxCell id="7Ly5xIm2dCU_URC9Vnqb-260" value="&lt;font style=&quot;color: rgb(255, 0, 0);&quot;&gt;3&lt;/font&gt;" style="text;html=1;align=center;verticalAlign=middle;whiteSpace=wrap;rounded=0;" vertex="1" parent="1">
          <mxGeometry x="1530" y="579" width="17" height="30" as="geometry" />
        </mxCell>
        <mxCell id="7Ly5xIm2dCU_URC9Vnqb-261" value="&lt;font style=&quot;color: rgb(255, 0, 0);&quot;&gt;5&lt;/font&gt;" style="text;html=1;align=center;verticalAlign=middle;whiteSpace=wrap;rounded=0;" vertex="1" parent="1">
          <mxGeometry x="1611" y="578" width="17" height="30" as="geometry" />
        </mxCell>
        <mxCell id="7Ly5xIm2dCU_URC9Vnqb-264" value="&lt;b style=&quot;font-size: 20px;&quot;&gt;Pre - order&lt;/b&gt;" style="rounded=0;whiteSpace=wrap;html=1;" vertex="1" parent="1">
          <mxGeometry x="880" y="440" width="160" height="40" as="geometry" />
        </mxCell>
        <mxCell id="7Ly5xIm2dCU_URC9Vnqb-265" value="&lt;b style=&quot;font-size: 20px;&quot;&gt;In - order&lt;/b&gt;" style="rounded=0;whiteSpace=wrap;html=1;" vertex="1" parent="1">
          <mxGeometry x="1161" y="440" width="160" height="40" as="geometry" />
        </mxCell>
        <mxCell id="7Ly5xIm2dCU_URC9Vnqb-266" value="" style="endArrow=none;html=1;rounded=0;entryX=0;entryY=1;entryDx=0;entryDy=0;exitX=1;exitY=0;exitDx=0;exitDy=0;" edge="1" parent="1" source="7Ly5xIm2dCU_URC9Vnqb-237" target="7Ly5xIm2dCU_URC9Vnqb-242">
          <mxGeometry width="50" height="50" relative="1" as="geometry">
            <mxPoint x="1511.5" y="569" as="sourcePoint" />
            <mxPoint x="1528.3578643762976" y="552.1421356237023" as="targetPoint" />
          </mxGeometry>
        </mxCell>
        <mxCell id="7Ly5xIm2dCU_URC9Vnqb-267" value="&lt;font style=&quot;font-size: 30px;&quot;&gt;10&lt;/font&gt;" style="ellipse;whiteSpace=wrap;html=1;aspect=fixed;" vertex="1" parent="1">
          <mxGeometry x="1161" y="560" width="40" height="40" as="geometry" />
        </mxCell>
        <mxCell id="7Ly5xIm2dCU_URC9Vnqb-268" value="&lt;font style=&quot;font-size: 30px;&quot;&gt;8&lt;/font&gt;" style="ellipse;whiteSpace=wrap;html=1;aspect=fixed;" vertex="1" parent="1">
          <mxGeometry x="1241" y="560" width="40" height="40" as="geometry" />
        </mxCell>
        <mxCell id="7Ly5xIm2dCU_URC9Vnqb-269" value="" style="endArrow=none;html=1;rounded=0;exitX=1;exitY=0;exitDx=0;exitDy=0;entryX=0;entryY=1;entryDx=0;entryDy=0;" edge="1" parent="1" source="7Ly5xIm2dCU_URC9Vnqb-281" target="7Ly5xIm2dCU_URC9Vnqb-267">
          <mxGeometry width="50" height="50" relative="1" as="geometry">
            <mxPoint x="1149.2821356237305" y="601.8578643762697" as="sourcePoint" />
            <mxPoint x="1160.9978643762693" y="590.1421356237308" as="targetPoint" />
          </mxGeometry>
        </mxCell>
        <mxCell id="7Ly5xIm2dCU_URC9Vnqb-270" value="&lt;font style=&quot;font-size: 30px;&quot;&gt;2&lt;/font&gt;" style="ellipse;whiteSpace=wrap;html=1;aspect=fixed;" vertex="1" parent="1">
          <mxGeometry x="1201" y="600" width="40" height="40" as="geometry" />
        </mxCell>
        <mxCell id="7Ly5xIm2dCU_URC9Vnqb-271" value="&lt;font style=&quot;font-size: 30px;&quot;&gt;27&lt;/font&gt;" style="ellipse;whiteSpace=wrap;html=1;aspect=fixed;" vertex="1" parent="1">
          <mxGeometry x="1281" y="600" width="40" height="40" as="geometry" />
        </mxCell>
        <mxCell id="7Ly5xIm2dCU_URC9Vnqb-272" value="&lt;font style=&quot;font-size: 30px;&quot;&gt;30&lt;/font&gt;" style="ellipse;whiteSpace=wrap;html=1;aspect=fixed;" vertex="1" parent="1">
          <mxGeometry x="1241" y="640" width="40" height="40" as="geometry" />
        </mxCell>
        <mxCell id="7Ly5xIm2dCU_URC9Vnqb-273" value="&lt;font style=&quot;font-size: 30px;&quot;&gt;40&lt;/font&gt;" style="ellipse;whiteSpace=wrap;html=1;aspect=fixed;" vertex="1" parent="1">
          <mxGeometry x="1321" y="640" width="40" height="40" as="geometry" />
        </mxCell>
        <mxCell id="7Ly5xIm2dCU_URC9Vnqb-274" value="" style="endArrow=none;html=1;rounded=0;exitX=0;exitY=0;exitDx=0;exitDy=0;entryX=1;entryY=1;entryDx=0;entryDy=0;" edge="1" parent="1" target="7Ly5xIm2dCU_URC9Vnqb-271">
          <mxGeometry width="50" height="50" relative="1" as="geometry">
            <mxPoint x="1326.8578643762685" y="645.8578643762686" as="sourcePoint" />
            <mxPoint x="1366.8578643762921" y="634.1421356237076" as="targetPoint" />
          </mxGeometry>
        </mxCell>
        <mxCell id="7Ly5xIm2dCU_URC9Vnqb-275" value="" style="endArrow=none;html=1;rounded=0;exitX=1;exitY=0;exitDx=0;exitDy=0;entryX=0;entryY=1;entryDx=0;entryDy=0;" edge="1" parent="1" target="7Ly5xIm2dCU_URC9Vnqb-271">
          <mxGeometry width="50" height="50" relative="1" as="geometry">
            <mxPoint x="1275.142135623731" y="645.8578643762686" as="sourcePoint" />
            <mxPoint x="1217" y="644" as="targetPoint" />
          </mxGeometry>
        </mxCell>
        <mxCell id="7Ly5xIm2dCU_URC9Vnqb-276" value="&lt;font style=&quot;color: rgb(255, 0, 0);&quot;&gt;2&lt;/font&gt;" style="text;html=1;align=center;verticalAlign=middle;whiteSpace=wrap;rounded=0;" vertex="1" parent="1">
          <mxGeometry x="1172.5" y="539" width="17" height="30" as="geometry" />
        </mxCell>
        <mxCell id="7Ly5xIm2dCU_URC9Vnqb-277" value="&lt;font style=&quot;color: rgb(255, 0, 0);&quot;&gt;4&lt;/font&gt;" style="text;html=1;align=center;verticalAlign=middle;whiteSpace=wrap;rounded=0;" vertex="1" parent="1">
          <mxGeometry x="1212.5" y="579" width="17" height="30" as="geometry" />
        </mxCell>
        <mxCell id="7Ly5xIm2dCU_URC9Vnqb-278" value="&lt;font style=&quot;color: rgb(255, 0, 0);&quot;&gt;7&lt;/font&gt;" style="text;html=1;align=center;verticalAlign=middle;whiteSpace=wrap;rounded=0;" vertex="1" parent="1">
          <mxGeometry x="1292.5" y="579" width="17" height="30" as="geometry" />
        </mxCell>
        <mxCell id="7Ly5xIm2dCU_URC9Vnqb-279" value="&lt;font style=&quot;color: rgb(255, 0, 0);&quot;&gt;6&lt;/font&gt;" style="text;html=1;align=center;verticalAlign=middle;whiteSpace=wrap;rounded=0;" vertex="1" parent="1">
          <mxGeometry x="1252.5" y="617" width="17" height="30" as="geometry" />
        </mxCell>
        <mxCell id="7Ly5xIm2dCU_URC9Vnqb-280" value="&lt;font style=&quot;color: rgb(255, 0, 0);&quot;&gt;8&lt;/font&gt;" style="text;html=1;align=center;verticalAlign=middle;whiteSpace=wrap;rounded=0;" vertex="1" parent="1">
          <mxGeometry x="1332.5" y="617" width="17" height="30" as="geometry" />
        </mxCell>
        <mxCell id="7Ly5xIm2dCU_URC9Vnqb-281" value="&lt;font style=&quot;font-size: 30px;&quot;&gt;20&lt;/font&gt;" style="ellipse;whiteSpace=wrap;html=1;aspect=fixed;" vertex="1" parent="1">
          <mxGeometry x="1121" y="600" width="40" height="40" as="geometry" />
        </mxCell>
        <mxCell id="7Ly5xIm2dCU_URC9Vnqb-282" value="&lt;font style=&quot;color: rgb(255, 0, 0);&quot;&gt;1&lt;/font&gt;" style="text;html=1;align=center;verticalAlign=middle;whiteSpace=wrap;rounded=0;" vertex="1" parent="1">
          <mxGeometry x="1131" y="580" width="17" height="30" as="geometry" />
        </mxCell>
        <mxCell id="7Ly5xIm2dCU_URC9Vnqb-283" value="&lt;font style=&quot;font-size: 30px;&quot;&gt;5&lt;/font&gt;" style="ellipse;whiteSpace=wrap;html=1;aspect=fixed;" vertex="1" parent="1">
          <mxGeometry x="1201" y="520" width="40" height="40" as="geometry" />
        </mxCell>
        <mxCell id="7Ly5xIm2dCU_URC9Vnqb-284" value="" style="endArrow=none;html=1;rounded=0;exitX=1;exitY=0;exitDx=0;exitDy=0;entryX=0;entryY=1;entryDx=0;entryDy=0;" edge="1" parent="1" source="7Ly5xIm2dCU_URC9Vnqb-267" target="7Ly5xIm2dCU_URC9Vnqb-283">
          <mxGeometry width="50" height="50" relative="1" as="geometry">
            <mxPoint x="1192" y="566" as="sourcePoint" />
            <mxPoint x="1294" y="484" as="targetPoint" />
          </mxGeometry>
        </mxCell>
        <mxCell id="7Ly5xIm2dCU_URC9Vnqb-285" value="" style="endArrow=none;html=1;rounded=0;exitX=1;exitY=1;exitDx=0;exitDy=0;entryX=0;entryY=0;entryDx=0;entryDy=0;" edge="1" parent="1" source="7Ly5xIm2dCU_URC9Vnqb-283" target="7Ly5xIm2dCU_URC9Vnqb-268">
          <mxGeometry width="50" height="50" relative="1" as="geometry">
            <mxPoint x="1232" y="606" as="sourcePoint" />
            <mxPoint x="1244" y="566" as="targetPoint" />
          </mxGeometry>
        </mxCell>
        <mxCell id="7Ly5xIm2dCU_URC9Vnqb-286" value="&lt;font style=&quot;color: rgb(255, 0, 0);&quot;&gt;3&lt;/font&gt;" style="text;html=1;align=center;verticalAlign=middle;whiteSpace=wrap;rounded=0;" vertex="1" parent="1">
          <mxGeometry x="1212.5" y="500" width="17" height="30" as="geometry" />
        </mxCell>
        <mxCell id="7Ly5xIm2dCU_URC9Vnqb-287" value="&lt;font style=&quot;color: rgb(255, 0, 0);&quot;&gt;5&lt;/font&gt;" style="text;html=1;align=center;verticalAlign=middle;whiteSpace=wrap;rounded=0;" vertex="1" parent="1">
          <mxGeometry x="1251" y="539" width="17" height="30" as="geometry" />
        </mxCell>
        <mxCell id="7Ly5xIm2dCU_URC9Vnqb-288" value="" style="endArrow=none;html=1;rounded=0;exitX=1;exitY=0;exitDx=0;exitDy=0;entryX=0;entryY=1;entryDx=0;entryDy=0;" edge="1" parent="1" source="7Ly5xIm2dCU_URC9Vnqb-270" target="7Ly5xIm2dCU_URC9Vnqb-268">
          <mxGeometry width="50" height="50" relative="1" as="geometry">
            <mxPoint x="1237.7821356237305" y="604.7178643762697" as="sourcePoint" />
            <mxPoint x="1249.4978643762693" y="593.002135623731" as="targetPoint" />
          </mxGeometry>
        </mxCell>
        <mxCell id="7Ly5xIm2dCU_URC9Vnqb-289" value="" style="endArrow=none;html=1;rounded=0;exitX=0;exitY=0;exitDx=0;exitDy=0;entryX=1;entryY=1;entryDx=0;entryDy=0;" edge="1" parent="1" source="7Ly5xIm2dCU_URC9Vnqb-271" target="7Ly5xIm2dCU_URC9Vnqb-268">
          <mxGeometry width="50" height="50" relative="1" as="geometry">
            <mxPoint x="1292.4978643762686" y="600.9278643762686" as="sourcePoint" />
            <mxPoint x="1281" y="590" as="targetPoint" />
          </mxGeometry>
        </mxCell>
        <mxCell id="7Ly5xIm2dCU_URC9Vnqb-290" value="&lt;b style=&quot;font-size: 20px;&quot;&gt;Post - order&lt;/b&gt;" style="rounded=0;whiteSpace=wrap;html=1;" vertex="1" parent="1">
          <mxGeometry x="1481" y="440" width="160" height="40" as="geometry" />
        </mxCell>
        <mxCell id="7Ly5xIm2dCU_URC9Vnqb-292" value="&lt;font style=&quot;font-size: 30px;&quot;&gt;20&lt;/font&gt;" style="ellipse;whiteSpace=wrap;html=1;aspect=fixed;" vertex="1" parent="1">
          <mxGeometry x="1400" y="640" width="40" height="40" as="geometry" />
        </mxCell>
        <mxCell id="7Ly5xIm2dCU_URC9Vnqb-293" value="&lt;font style=&quot;color: rgb(255, 0, 0);&quot;&gt;1&lt;/font&gt;" style="text;html=1;align=center;verticalAlign=middle;whiteSpace=wrap;rounded=0;" vertex="1" parent="1">
          <mxGeometry x="1411.5" y="620" width="17" height="30" as="geometry" />
        </mxCell>
        <mxCell id="7Ly5xIm2dCU_URC9Vnqb-294" value="" style="endArrow=none;html=1;rounded=0;exitX=0;exitY=0;exitDx=0;exitDy=0;entryX=1;entryY=1;entryDx=0;entryDy=0;" edge="1" parent="1" source="7Ly5xIm2dCU_URC9Vnqb-239" target="7Ly5xIm2dCU_URC9Vnqb-242">
          <mxGeometry width="50" height="50" relative="1" as="geometry">
            <mxPoint x="1641" y="562.5" as="sourcePoint" />
            <mxPoint x="1606.642135623731" y="554.1421356237311" as="targetPoint" />
          </mxGeometry>
        </mxCell>
        <mxCell id="7Ly5xIm2dCU_URC9Vnqb-295" value="" style="endArrow=none;html=1;rounded=0;exitX=1;exitY=0;exitDx=0;exitDy=0;entryX=0;entryY=1;entryDx=0;entryDy=0;" edge="1" parent="1" source="7Ly5xIm2dCU_URC9Vnqb-233" target="7Ly5xIm2dCU_URC9Vnqb-239">
          <mxGeometry width="50" height="50" relative="1" as="geometry">
            <mxPoint x="1635.1421356237308" y="604.8578643762692" as="sourcePoint" />
            <mxPoint x="1641.357864376269" y="592.502135623731" as="targetPoint" />
          </mxGeometry>
        </mxCell>
        <mxCell id="7Ly5xIm2dCU_URC9Vnqb-296" value="" style="endArrow=none;html=1;rounded=0;exitX=1;exitY=0;exitDx=0;exitDy=0;entryX=0;entryY=1;entryDx=0;entryDy=0;" edge="1" parent="1" source="7Ly5xIm2dCU_URC9Vnqb-292" target="7Ly5xIm2dCU_URC9Vnqb-231">
          <mxGeometry width="50" height="50" relative="1" as="geometry">
            <mxPoint x="1438" y="640.5" as="sourcePoint" />
            <mxPoint x="1449" y="629.5" as="targetPoint" />
          </mxGeometry>
        </mxCell>
        <mxCell id="7Ly5xIm2dCU_URC9Vnqb-297" value="" style="endArrow=none;html=1;rounded=0;exitX=1;exitY=0;exitDx=0;exitDy=0;entryX=0;entryY=1;entryDx=0;entryDy=0;" edge="1" parent="1" source="7Ly5xIm2dCU_URC9Vnqb-231" target="7Ly5xIm2dCU_URC9Vnqb-237">
          <mxGeometry width="50" height="50" relative="1" as="geometry">
            <mxPoint x="1474" y="609" as="sourcePoint" />
            <mxPoint x="1487" y="597" as="targetPoint" />
          </mxGeometry>
        </mxCell>
        <mxCell id="7Ly5xIm2dCU_URC9Vnqb-298" value="" style="endArrow=none;html=1;rounded=0;exitX=0;exitY=0;exitDx=0;exitDy=0;entryX=1;entryY=1;entryDx=0;entryDy=0;" edge="1" parent="1" source="7Ly5xIm2dCU_URC9Vnqb-257" target="7Ly5xIm2dCU_URC9Vnqb-237">
          <mxGeometry width="50" height="50" relative="1" as="geometry">
            <mxPoint x="1454" y="666" as="sourcePoint" />
            <mxPoint x="1467" y="654" as="targetPoint" />
          </mxGeometry>
        </mxCell>
        <mxCell id="7Ly5xIm2dCU_URC9Vnqb-301" value="" style="endArrow=none;html=1;rounded=0;" edge="1" parent="1">
          <mxGeometry width="50" height="50" relative="1" as="geometry">
            <mxPoint x="1590" y="420" as="sourcePoint" />
            <mxPoint x="1640" y="370" as="targetPoint" />
          </mxGeometry>
        </mxCell>
      </root>
    </mxGraphModel>
  </diagram>
</mxfile>
